<svg id="Layer_1" data-name="Layer 1" xmlns="http://www.w3.org/2000/svg" viewBox="0 0 2003.97 1500.02"><defs><style>.cls-1{fill:#efcc61;}.cls-2{fill:#353535;}.cls-3{font-size:700px;font-family:FontAwesome, FontAwesome;}.cls-4{font-size:200px;font-family:OpenSans-Light, Open Sans;}</style></defs><title>icon</title><rect class="cls-1" x="503.97" width="1500" height="1500.02"/><path class="cls-2" d="M1282.63,1401.75v77.59l54.37-38.79Zm11.32,21.17,24.69,17.62L1294,1458.16Z" transform="translate(501.97 0.02)"/><path class="cls-2" d="M1422,1405.95l-76.85-10.65,31,59.18Zm-22.53,8.31-20.84,22-14.06-26.88Z" transform="translate(501.97 0.02)"/><path class="cls-2" d="M1399,1469.38l77.4-5.43-42.5-51.52Zm20.33-12.77,15.85-25.86,19.3,23.4Z" transform="translate(501.97 0.02)"/><polygon id="_Path_" data-name="&lt;Path&gt;" class="cls-2" points="1764.97 1466.18 1740.28 1448.56 1764.97 1430.94 1764.97 1466.18"/><polygon id="_Path_2" data-name="&lt;Path&gt;" class="cls-2" points="1833.87 1477.1 1844.38 1448.65 1867.87 1467.85 1833.87 1477.1"/><text x="501.97" y="0.02"></text><text class="cls-3" transform="translate(851.47 855.84)"></text><text class="cls-4" transform="translate(1023.97 1171.28)">Ratio</text></svg>